# xmcd
#
# Track frame offsets:
#  187
#  14565
#  24875
#  69207
#  84722
#  98522
#  110360
#  127085
#  142955
#  158315
#  178595
#  190527
#  209420
#  231555
#  250937
#  264725
#  277095
#  296267
#  302765
#
# Disc length: 4092 seconds
#
# Revision: 0
# Processed by: cddbd v1.4b42PL1 Copyright (c) Steve Scherf et al.
# Submitted via: AltoMP3_Maker 3.0
#
DISCID=040ffa13
DTITLE=Larry Gatlin - Live At 8 PM
DYEAR=1900
DGENRE=
TTITLE0=Alive And Well
TTITLE1=Nighttime Magic
TTITLE2=Grammy Medley
TTITLE3=Love Is Just A Game
TTITLE4=Broken Lady
TTITLE5=Healin' Stream
TTITLE6=The Heart
TTITLE7=Talkn' To The Moon
TTITLE8=I Might Be What You're Lookin' For
TTITLE9=Boogie And Beethoven
TTITLE10=Love Of A Lifetime
TTITLE11=I've Done Enough Dyin' Today
TTITLE12=The Eagle
TTITLE13=8:00 P.M.
TTITLE14=Houston Means I'm One Day Closer To You
TTITLE15=All The Gold In California
TTITLE16=She Used To Be Somebody's Baby
TTITLE17=Alleluia
TTITLE18=She Used To Be Somebody's Baby (Reprise)
EXTD=
EXTT0=
EXTT1=
EXTT2=
EXTT3=
EXTT4=
EXTT5=
EXTT6=
EXTT7=
EXTT8=
EXTT9=
EXTT10=
EXTT11=
EXTT12=
EXTT13=
EXTT14=
EXTT15=
EXTT16=
EXTT17=
EXTT18=
PLAYORDER=
